<svg id="visual" viewBox="0 0 1920 1080" width="1920" height="1080" xmlns="http://www.w3.org/2000/svg" xmlns:xlink="http://www.w3.org/1999/xlink" version="1.1"><rect x="0" y="0" width="1920" height="1080" fill="#FFFFFF"></rect><path d="M0 618L53.3 633.8C106.7 649.7 213.3 681.3 320 665.5C426.7 649.7 533.3 586.3 640 573.7C746.7 561 853.3 599 960 606.3C1066.7 613.7 1173.3 590.3 1280 571.7C1386.7 553 1493.3 539 1600 547.3C1706.7 555.7 1813.3 586.3 1866.7 601.7L1920 617L1920 1081L1866.7 1081C1813.3 1081 1706.7 1081 1600 1081C1493.3 1081 1386.7 1081 1280 1081C1173.3 1081 1066.7 1081 960 1081C853.3 1081 746.7 1081 640 1081C533.3 1081 426.7 1081 320 1081C213.3 1081 106.7 1081 53.3 1081L0 1081Z" fill="#411c55"></path><path d="M0 592L53.3 612C106.7 632 213.3 672 320 690.5C426.7 709 533.3 706 640 705.8C746.7 705.7 853.3 708.3 960 699.3C1066.7 690.3 1173.3 669.7 1280 668.8C1386.7 668 1493.3 687 1600 691C1706.7 695 1813.3 684 1866.7 678.5L1920 673L1920 1081L1866.7 1081C1813.3 1081 1706.7 1081 1600 1081C1493.3 1081 1386.7 1081 1280 1081C1173.3 1081 1066.7 1081 960 1081C853.3 1081 746.7 1081 640 1081C533.3 1081 426.7 1081 320 1081C213.3 1081 106.7 1081 53.3 1081L0 1081Z" fill="#68205c"></path><path d="M0 821L53.3 804C106.7 787 213.3 753 320 740.2C426.7 727.3 533.3 735.7 640 725.2C746.7 714.7 853.3 685.3 960 694.3C1066.7 703.3 1173.3 750.7 1280 763.5C1386.7 776.3 1493.3 754.7 1600 758.5C1706.7 762.3 1813.3 791.7 1866.7 806.3L1920 821L1920 1081L1866.7 1081C1813.3 1081 1706.7 1081 1600 1081C1493.3 1081 1386.7 1081 1280 1081C1173.3 1081 1066.7 1081 960 1081C853.3 1081 746.7 1081 640 1081C533.3 1081 426.7 1081 320 1081C213.3 1081 106.7 1081 53.3 1081L0 1081Z" fill="#8c285c"></path><path d="M0 739L53.3 761.8C106.7 784.7 213.3 830.3 320 842.5C426.7 854.7 533.3 833.3 640 816.3C746.7 799.3 853.3 786.7 960 772.5C1066.7 758.3 1173.3 742.7 1280 753.2C1386.7 763.7 1493.3 800.3 1600 804C1706.7 807.7 1813.3 778.3 1866.7 763.7L1920 749L1920 1081L1866.7 1081C1813.3 1081 1706.7 1081 1600 1081C1493.3 1081 1386.7 1081 1280 1081C1173.3 1081 1066.7 1081 960 1081C853.3 1081 746.7 1081 640 1081C533.3 1081 426.7 1081 320 1081C213.3 1081 106.7 1081 53.3 1081L0 1081Z" fill="#ac3558"></path><path d="M0 930L53.3 930.2C106.7 930.3 213.3 930.7 320 920.8C426.7 911 533.3 891 640 886.7C746.7 882.3 853.3 893.7 960 887C1066.7 880.3 1173.3 855.7 1280 856.2C1386.7 856.7 1493.3 882.3 1600 879.7C1706.7 877 1813.3 846 1866.7 830.5L1920 815L1920 1081L1866.7 1081C1813.3 1081 1706.7 1081 1600 1081C1493.3 1081 1386.7 1081 1280 1081C1173.3 1081 1066.7 1081 960 1081C853.3 1081 746.7 1081 640 1081C533.3 1081 426.7 1081 320 1081C213.3 1081 106.7 1081 53.3 1081L0 1081Z" fill="#c64a4f"></path><path d="M0 988L53.3 982.2C106.7 976.3 213.3 964.7 320 965.2C426.7 965.7 533.3 978.3 640 970.8C746.7 963.3 853.3 935.7 960 932.3C1066.7 929 1173.3 950 1280 950.5C1386.7 951 1493.3 931 1600 921.8C1706.7 912.7 1813.3 914.3 1866.7 915.2L1920 916L1920 1081L1866.7 1081C1813.3 1081 1706.7 1081 1600 1081C1493.3 1081 1386.7 1081 1280 1081C1173.3 1081 1066.7 1081 960 1081C853.3 1081 746.7 1081 640 1081C533.3 1081 426.7 1081 320 1081C213.3 1081 106.7 1081 53.3 1081L0 1081Z" fill="#d96544"></path><path d="M0 1004L53.3 1004.8C106.7 1005.7 213.3 1007.3 320 1005.2C426.7 1003 533.3 997 640 992.8C746.7 988.7 853.3 986.3 960 981.2C1066.7 976 1173.3 968 1280 975C1386.7 982 1493.3 1004 1600 1007C1706.7 1010 1813.3 994 1866.7 986L1920 978L1920 1081L1866.7 1081C1813.3 1081 1706.7 1081 1600 1081C1493.3 1081 1386.7 1081 1280 1081C1173.3 1081 1066.7 1081 960 1081C853.3 1081 746.7 1081 640 1081C533.3 1081 426.7 1081 320 1081C213.3 1081 106.7 1081 53.3 1081L0 1081Z" fill="#e48339"></path></svg>